<svg width="21" height="20" viewBox="0 0 21 20" fill="none" xmlns="http://www.w3.org/2000/svg">
<path d="M19.7225 18.9081L19.7247 18.9103C19.8694 19.0534 19.8694 19.244 19.7247 19.387L19.7226 19.3891C19.6862 19.4255 19.607 19.4803 19.5234 19.4957C19.4875 19.5023 19.4507 19.5019 19.4098 19.49C19.3699 19.4783 19.3089 19.4506 19.2304 19.3804L14.7326 14.879L14.4114 14.5575L14.0608 14.8467C12.6625 16.0001 10.8735 16.6916 8.92216 16.6916C4.45561 16.6916 0.833252 13.0669 0.833252 8.59579C0.833252 4.12469 4.45561 0.5 8.92216 0.5C13.3887 0.5 17.0111 4.12469 17.0111 8.59579C17.0111 10.542 16.3274 12.3286 15.1832 13.7235L14.8961 14.0735L15.2159 14.3939L19.7225 18.9081ZM8.92216 1.17753C4.82835 1.17753 1.50943 4.49967 1.50943 8.59579C1.50943 12.6923 4.83281 16.014 8.92624 16.014C13.02 16.014 16.339 12.6919 16.339 8.59579C16.339 4.49929 13.0156 1.17753 8.92216 1.17753Z" fill="black" stroke="#8D8D8D"/>
</svg>